<svg id="レイヤー_1" data-name="レイヤー 1" xmlns="http://www.w3.org/2000/svg" viewBox="0 0 200 70"><defs><style>.cls-1{fill:#fff;}.cls-2{fill:#202121;}.cls-3{fill:#359893;}.cls-4{fill:#040000;}</style></defs><title>eiicon-logo</title><rect class="cls-1" width="200" height="70"/><path class="cls-2" d="M142.64,33.93v10h-4.78V21.21h4.78v2.4a14.39,14.39,0,0,1,3.18-2,10,10,0,0,1,4.36-.71,8.94,8.94,0,0,1,5.93,3A10.63,10.63,0,0,1,158.76,31V43.89H154V31.44c-.41-4.73-3.64-5.92-5.67-5.92A5.86,5.86,0,0,0,144,27.85C143.18,29.29,142.71,30.57,142.64,33.93Z"/><path class="cls-2" d="M62.7,31a9.65,9.65,0,0,0-3.25-7.71,11.67,11.67,0,0,0-7.89-2.8,11.47,11.47,0,0,0-8.06,3.16A11,11,0,0,0,40.1,32.2a15.05,15.05,0,0,0,.16,2.12h0a10.48,10.48,0,0,0,3.27,6.45,11.47,11.47,0,0,0,8.06,3.16,11.67,11.67,0,0,0,7.89-2.8,9,9,0,0,0,2.9-4.76H57.47a4.81,4.81,0,0,1-1.35,1.91,6.56,6.56,0,0,1-4.42,1.54A7.57,7.57,0,0,1,47,38.22a5.11,5.11,0,0,1-2.07-3.91H62.7Zm-17.82-.47A5.17,5.17,0,0,1,47,26.21a7.57,7.57,0,0,1,4.72-1.6,6.56,6.56,0,0,1,4.42,1.54,5.48,5.48,0,0,1,1.8,4.4Z"/><path class="cls-2" d="M97.71,43.89a11.48,11.48,0,0,1-8.16-3.23,11.07,11.07,0,0,1-3.42-8.44,11,11,0,0,1,3.57-8.48,12.41,12.41,0,0,1,8.7-3.27A11.8,11.8,0,0,1,107.07,24l-2.82,3.46a9.08,9.08,0,0,0-5.94-2.56,7.49,7.49,0,0,0-5.19,2A6.59,6.59,0,0,0,90.91,32a7.44,7.44,0,0,0,7.54,7.5,8.33,8.33,0,0,0,6-2.91l2.82,3.08A13.08,13.08,0,0,1,97.71,43.89Z"/><path class="cls-2" d="M130.4,40.5a12.45,12.45,0,0,1-17.1,0,11.27,11.27,0,0,1-3.42-8.31,11.27,11.27,0,0,1,3.42-8.31,12.45,12.45,0,0,1,17.1,0,11.27,11.27,0,0,1,3.42,8.31A11.27,11.27,0,0,1,130.4,40.5Zm-13.7-2.95a7.43,7.43,0,0,0,10.3,0,7.34,7.34,0,0,0,2-5.36,7.34,7.34,0,0,0-2-5.36,7.43,7.43,0,0,0-10.3,0,7.34,7.34,0,0,0-2,5.36A7.34,7.34,0,0,0,116.7,37.55Z"/><path class="cls-2" d="M68.75,16.56a2.79,2.79,0,1,1,2,.84A2.72,2.72,0,0,1,68.75,16.56Z"/><path class="cls-3" d="M76.2,16.56a2.79,2.79,0,1,1,2,.84A2.72,2.72,0,0,1,76.2,16.56Z"/><polygon class="cls-3" points="80.25 25.41 80.25 19.56 76.13 19.56 76.13 28.3 80.25 25.41"/><polygon class="cls-3" points="76.14 31.51 76.13 31.49 76.13 43.98 80.25 43.98 80.25 28.63 76.14 31.51"/><polygon class="cls-2" points="72.81 28.37 72.81 19.56 68.69 19.56 68.69 25.49 72.81 28.37"/><polygon class="cls-2" points="68.69 28.63 68.69 43.98 72.81 43.98 72.81 31.51 68.69 28.63"/><path class="cls-4" d="M43.15,51a2.53,2.53,0,0,1,2,.85,2.74,2.74,0,0,1,0,3.72,2.7,2.7,0,0,1-3.84,0,2.74,2.74,0,0,1,0-3.71A2.53,2.53,0,0,1,43.15,51Zm0,.64a1.9,1.9,0,0,0-1.41.61,2,2,0,0,0-.59,1.46,2.08,2.08,0,0,0,.27,1,1.9,1.9,0,0,0,.73.74,2.06,2.06,0,0,0,2,0,1.9,1.9,0,0,0,.73-.74,2.08,2.08,0,0,0,.27-1,2,2,0,0,0-.59-1.46A1.9,1.9,0,0,0,43.15,51.67Z"/><path class="cls-4" d="M47,51.16h.66v.94a2.64,2.64,0,0,1,.9-.8A2.38,2.38,0,0,1,49.72,51a2.52,2.52,0,0,1,1.86.78,2.59,2.59,0,0,1,.77,1.89,2.64,2.64,0,0,1-.77,1.91,2.58,2.58,0,0,1-3,.53,2.82,2.82,0,0,1-.92-.76v2.75H47Zm2.63.5a1.93,1.93,0,0,0-1.44.6,2,2,0,0,0-.58,1.48,2.1,2.1,0,0,0,.26,1,1.89,1.89,0,0,0,.74.74,2.06,2.06,0,0,0,1,.27,1.94,1.94,0,0,0,1-.27,2,2,0,0,0,.74-.77,2.07,2.07,0,0,0,0-2.06,2,2,0,0,0-1.75-1Z"/><path class="cls-4" d="M57.89,54.57l.55.29a3,3,0,0,1-.63.86,2.51,2.51,0,0,1-.8.5,2.81,2.81,0,0,1-1,.17,2.44,2.44,0,0,1-2-.82,2.76,2.76,0,0,1-.71-1.85,2.73,2.73,0,0,1,.6-1.73,2.44,2.44,0,0,1,2-1A2.52,2.52,0,0,1,58,52a2.77,2.77,0,0,1,.56,1.75H54a2.08,2.08,0,0,0,.57,1.46,1.82,1.82,0,0,0,1.36.57,2.18,2.18,0,0,0,.76-.14,2,2,0,0,0,.63-.36A3.09,3.09,0,0,0,57.89,54.57Zm0-1.38a2.18,2.18,0,0,0-.38-.84,1.81,1.81,0,0,0-.66-.51,2,2,0,0,0-.87-.19,1.87,1.87,0,0,0-1.29.48,2.18,2.18,0,0,0-.6,1.06Z"/><path class="cls-4" d="M59.84,51.16h.66v.92a2.75,2.75,0,0,1,.87-.79,2.15,2.15,0,0,1,1-.26,1.81,1.81,0,0,1,1,.29,1.73,1.73,0,0,1,.65.78,4.14,4.14,0,0,1,.21,1.54v2.63h-.66V53.83a6,6,0,0,0-.07-1.18,1.3,1.3,0,0,0-.44-.76,1.32,1.32,0,0,0-.85-.26,1.62,1.62,0,0,0-1.07.39,1.84,1.84,0,0,0-.62,1,6.79,6.79,0,0,0-.09,1.39v1.87h-.66Z"/><path class="cls-4" d="M68.59,49.06a.54.54,0,1,1-.54.54.53.53,0,0,1,.16-.38A.52.52,0,0,1,68.59,49.06Zm-.33,2.1h.66v5.11h-.66Z"/><path class="cls-4" d="M70.29,51.16h.66v.92a2.75,2.75,0,0,1,.87-.79,2.15,2.15,0,0,1,1-.26,1.81,1.81,0,0,1,1,.29,1.73,1.73,0,0,1,.65.78,4.14,4.14,0,0,1,.21,1.54v2.63h-.66V53.83A6,6,0,0,0,74,52.65a1.3,1.3,0,0,0-.44-.76,1.32,1.32,0,0,0-.85-.26,1.62,1.62,0,0,0-1.07.39A1.84,1.84,0,0,0,71,53a6.79,6.79,0,0,0-.09,1.39v1.87h-.66Z"/><path class="cls-4" d="M76.15,51.16h.66v.92a2.75,2.75,0,0,1,.87-.79,2.15,2.15,0,0,1,1-.26,1.81,1.81,0,0,1,1,.29,1.73,1.73,0,0,1,.65.78,4.14,4.14,0,0,1,.21,1.54v2.63h-.66V53.83a6,6,0,0,0-.07-1.18,1.3,1.3,0,0,0-.44-.76,1.32,1.32,0,0,0-.85-.26,1.62,1.62,0,0,0-1.07.39,1.84,1.84,0,0,0-.62,1,6.79,6.79,0,0,0-.09,1.39v1.87h-.66Z"/><path class="cls-4" d="M84.43,51a2.53,2.53,0,0,1,2,.85,2.74,2.74,0,0,1,0,3.72,2.7,2.7,0,0,1-3.84,0,2.74,2.74,0,0,1,0-3.71A2.53,2.53,0,0,1,84.43,51Zm0,.64a1.9,1.9,0,0,0-1.41.61,2,2,0,0,0-.59,1.46,2.08,2.08,0,0,0,.27,1,1.9,1.9,0,0,0,.73.74,2.07,2.07,0,0,0,2,0,1.9,1.9,0,0,0,.73-.74,2.08,2.08,0,0,0,.27-1,2,2,0,0,0-.59-1.46A1.9,1.9,0,0,0,84.43,51.67Z"/><path class="cls-4" d="M87.83,51.16h.7l1.71,3.72,1.69-3.72h.7L90.3,56.27h-.12Z"/><path class="cls-4" d="M98.73,51.16v5.11h-.65v-.88a2.82,2.82,0,0,1-.93.76,2.59,2.59,0,0,1-3-.53,2.63,2.63,0,0,1-.77-1.91,2.59,2.59,0,0,1,.78-1.89A2.53,2.53,0,0,1,96,51a2.41,2.41,0,0,1,1.14.27,2.6,2.6,0,0,1,.89.8v-.94Zm-2.63.5a2,2,0,0,0-1.75,1,2.07,2.07,0,0,0,0,2.06,2,2,0,0,0,.74.77,2,2,0,0,0,1,.27,2,2,0,0,0,1-.27,1.9,1.9,0,0,0,.74-.74,2.1,2.1,0,0,0,.26-1,2,2,0,0,0-.58-1.48A1.93,1.93,0,0,0,96.1,51.66Z"/><path class="cls-4" d="M100.78,49.26h.66v1.9h1v.57h-1v4.54h-.66V51.73h-.9v-.57h.9Z"/><path class="cls-4" d="M103.7,49.06a.54.54,0,1,1-.54.54.53.53,0,0,1,.16-.38A.51.51,0,0,1,103.7,49.06Zm-.33,2.1H104v5.11h-.66Z"/><path class="cls-4" d="M107.81,51a2.53,2.53,0,0,1,2,.85,2.74,2.74,0,0,1,0,3.72,2.7,2.7,0,0,1-3.84,0,2.74,2.74,0,0,1,0-3.71A2.53,2.53,0,0,1,107.81,51Zm0,.64a1.9,1.9,0,0,0-1.41.61,2,2,0,0,0-.59,1.46,2.08,2.08,0,0,0,.27,1,1.9,1.9,0,0,0,.73.74,2.07,2.07,0,0,0,2,0,1.91,1.91,0,0,0,.72-.74,2.08,2.08,0,0,0,.27-1,2,2,0,0,0-.59-1.46A1.9,1.9,0,0,0,107.81,51.67Z"/><path class="cls-4" d="M111.69,51.16h.66v.92a2.74,2.74,0,0,1,.87-.79,2.15,2.15,0,0,1,1-.26,1.81,1.81,0,0,1,1,.29,1.73,1.73,0,0,1,.65.78,4.13,4.13,0,0,1,.21,1.54v2.63h-.66V53.83a5.89,5.89,0,0,0-.07-1.18,1.29,1.29,0,0,0-.44-.76,1.32,1.32,0,0,0-.84-.26,1.62,1.62,0,0,0-1.07.39,1.85,1.85,0,0,0-.62,1,6.79,6.79,0,0,0-.09,1.39v1.87h-.66Z"/><path class="cls-4" d="M120.22,51.16h.66v.94a2.65,2.65,0,0,1,.9-.8,2.37,2.37,0,0,1,1.13-.27,2.53,2.53,0,0,1,1.86.78,2.59,2.59,0,0,1,.77,1.89,2.64,2.64,0,0,1-.77,1.91,2.58,2.58,0,0,1-3,.53,2.82,2.82,0,0,1-.93-.76v2.75h-.66Zm2.63.5a1.93,1.93,0,0,0-1.44.6,2,2,0,0,0-.58,1.48,2.11,2.11,0,0,0,.26,1,1.9,1.9,0,0,0,.75.74,2.06,2.06,0,0,0,1,.27,1.93,1.93,0,0,0,1-.27,2,2,0,0,0,.74-.77,2.07,2.07,0,0,0,0-2.06,2,2,0,0,0-1.75-1Z"/><path class="cls-4" d="M126.68,49.19h.66v7.08h-.66Z"/><path class="cls-4" d="M133.79,51.16v5.11h-.65v-.88a2.82,2.82,0,0,1-.93.76,2.59,2.59,0,0,1-3-.53,2.64,2.64,0,0,1-.77-1.91,2.59,2.59,0,0,1,.77-1.89,2.53,2.53,0,0,1,1.86-.78,2.41,2.41,0,0,1,1.14.27,2.59,2.59,0,0,1,.89.8v-.94Zm-2.63.5a2,2,0,0,0-1.75,1,2.07,2.07,0,0,0,0,2.06,2,2,0,0,0,.74.77,2,2,0,0,0,1,.27,2,2,0,0,0,1-.27,1.89,1.89,0,0,0,.74-.74,2.1,2.1,0,0,0,.26-1,2,2,0,0,0-.58-1.48A1.93,1.93,0,0,0,131.16,51.66Z"/><path class="cls-4" d="M135.84,49.26h.66v1.9h1v.57h-1v4.54h-.66V51.73h-.9v-.57h.9Z"/><path class="cls-4" d="M140.63,49.19v.64a1.62,1.62,0,0,0-.62-.16.6.6,0,0,0-.32.08.35.35,0,0,0-.16.18,2.52,2.52,0,0,0,0,.54v.69h1.07v.57H139.5v4.54h-.66V51.73h-.67v-.57h.67v-.8a2.16,2.16,0,0,1,.1-.78.8.8,0,0,1,.34-.38,1.13,1.13,0,0,1,.58-.14A2.76,2.76,0,0,1,140.63,49.19Z"/><path class="cls-4" d="M144,51a2.53,2.53,0,0,1,2,.85,2.74,2.74,0,0,1,0,3.72,2.7,2.7,0,0,1-3.84,0,2.74,2.74,0,0,1,0-3.71A2.53,2.53,0,0,1,144,51Zm0,.64a1.9,1.9,0,0,0-1.41.61,2,2,0,0,0-.59,1.46,2.08,2.08,0,0,0,.27,1,1.9,1.9,0,0,0,.73.74,2.06,2.06,0,0,0,2,0,1.91,1.91,0,0,0,.72-.74,2.08,2.08,0,0,0,.27-1,2,2,0,0,0-.59-1.46A1.9,1.9,0,0,0,144,51.67Z"/><path class="cls-4" d="M147.59,51.16h.67v.75a2.35,2.35,0,0,1,.63-.66,1.25,1.25,0,0,1,.69-.22,1.2,1.2,0,0,1,.58.17l-.34.55a.92.92,0,0,0-.35-.09,1,1,0,0,0-.63.27,1.71,1.71,0,0,0-.46.84,8,8,0,0,0-.12,1.77v1.73h-.67Z"/><path class="cls-4" d="M150.73,51.16h.66V52a2.57,2.57,0,0,1,.71-.71,2,2,0,0,1,1-.3,1.75,1.75,0,0,1,.71.15,1.51,1.51,0,0,1,.54.39,2.06,2.06,0,0,1,.37.69,2.42,2.42,0,0,1,.82-.91,1.94,1.94,0,0,1,1.06-.31,1.66,1.66,0,0,1,.93.27,1.6,1.6,0,0,1,.6.75,4,4,0,0,1,.2,1.44v2.79h-.67V53.48a3.64,3.64,0,0,0-.12-1.13,1,1,0,0,0-.4-.5,1.19,1.19,0,0,0-.68-.19,1.46,1.46,0,0,0-.87.28,1.61,1.61,0,0,0-.58.75,4.74,4.74,0,0,0-.18,1.57v2h-.66V53.65a4.49,4.49,0,0,0-.11-1.26,1.06,1.06,0,0,0-.4-.53,1.17,1.17,0,0,0-.68-.2,1.47,1.47,0,0,0-.85.27,1.63,1.63,0,0,0-.59.74,4,4,0,0,0-.19,1.42v2.16h-.66Z"/></svg>