<?xml version="1.0" encoding="utf-8"?>
<!-- Generator: Adobe Illustrator 22.0.0, SVG Export Plug-In . SVG Version: 6.00 Build 0)  -->
<svg version="1.1" id="レイヤー_1" xmlns="http://www.w3.org/2000/svg" xmlns:xlink="http://www.w3.org/1999/xlink" x="0px"
	 y="0px" viewBox="0 0 960 336" style="enable-background:new 0 0 960 336;" xml:space="preserve">
<style type="text/css">
	.st0{fill:#FF355E;}
	.st1{fill:#515457;}
	.st2{display:none;}
	.st3{display:inline;}
</style>
<g id="レイヤー_1_1_">
	<g>
		<path class="st0" d="M204.7,220l-16.2-11.7c-2.2-1.6-5.2-1.6-7.3,0c-8.6,6-18.7,9.2-29.2,9.2c-28.2,0-51.1-22.9-51.1-51.1
			s22.9-51.1,51.1-51.1c10.5,0,20.5,3.2,29.1,9.2c2.2,1.6,5.2,1.6,7.3-0.1l16.2-11.7c1.6-1.1,2.6-2.9,2.7-4.9s-0.8-3.9-2.2-5.1
			c-14.9-12.4-33.8-19.3-53.1-19.3c-45.8,0-83,37.2-83,83s37.2,83,83,83c19.4,0,38.3-6.9,53.2-19.4c1.6-1.3,2.3-3.2,2.2-5.1
			C207.2,223,206.2,221.1,204.7,220z"/>
		<path class="st0" d="M382.5,137.2c-12-31-42.4-51.9-75.5-51.9h-57.9c-3.5,0-6.4,2.9-6.4,6.4v18.7c0,3.5,2.9,6.4,6.4,6.4H307
			c21.7,0,41.2,14.5,47.4,35.3c1.4,4.7,2.2,9.5,2.2,14.3s-0.7,9.7-2.2,14.3c-6.3,20.7-25.8,35.3-47.4,35.3h-57.9
			c-3.5,0-6.4,2.9-6.4,6.4v18.7c0,3.5,2.9,6.4,6.4,6.4H307c33.2,0,63.5-20.8,75.5-51.9c3.6-9.3,5.4-19.2,5.4-29.2
			C388,156.4,386.1,146.6,382.5,137.2z"/>
		<path class="st0" d="M151.8,156.9v19.2c0,3.5,2.9,6.4,6.4,6.4h140.4c3.5,0,6.4-2.9,6.4-6.4v-19.2c0-3.5-2.9-6.4-6.4-6.4H158.2
			C154.6,150.5,151.8,153.4,151.8,156.9z"/>
	</g>
	<g>
		<g>
			<path class="st1" d="M621.5,199.7c-0.4-0.3-1-0.3-1.4-0.3s-0.9,0.1-1.2,0.3c-5.3,2.5-11.9,3.8-19.8,3.8c-21.3,0-34-13.4-34-35.9
				c0-21.8,13.4-35.9,34.1-35.9c5.5,0,13.5,1,19.4,3.8c0.3,0.2,0.8,0.3,1.2,0.3c0.5,0,1-0.1,1.4-0.3c0.8-0.4,1.3-1.3,1.4-2.2
				l0.9-9.9c0.1-1.2-0.6-2.4-1.7-2.9c-7-2.9-16.8-3.9-23.1-3.9c-29.6,0-50.9,21.5-50.9,51.1c0,31,20,51.1,50.9,51.1
				c3.4,0,15.2-0.3,23.6-4.5c1-0.5,1.6-1.6,1.6-2.8l-0.9-9.4C622.8,201,622.2,200.1,621.5,199.7z"/>
			<path class="st1" d="M678.6,116.4c-31,0-44.9,25.7-44.9,51.1c0,31.5,17.2,51.1,44.9,51.1c14.1,0,25.8-5.4,33.8-15.5
				c7.2-9,11.1-21.7,11.1-35.6C723.4,136,706.2,116.4,678.6,116.4z M678.6,203.7c-13.7,0-27.6-11.1-27.6-36.1
				c0-18,8.6-36.1,27.6-36.1c13.3,0,27.5,9.5,27.5,36.1C706,194.2,691.8,203.7,678.6,203.7z"/>
			<path class="st1" d="M765.3,117.8h-24.4c-1.6,0-2.9,1.3-2.9,2.9v93.5c0,1.6,1.3,2.9,2.9,2.9h19.2c36,0,55.8-17.6,55.8-49.5
				C815.9,135.9,797.4,117.8,765.3,117.8z M759.7,202.3h-5v-69.6h10.1c21.4,0,33.8,12.7,33.8,34.9
				C798.5,191.6,786.6,202.3,759.7,202.3z"/>
			<path class="st1" d="M883.1,202.3h-35.9v-28.8h32.5c1.6,0,2.9-1.3,2.9-2.9v-8.9c0-1.6-1.3-2.9-2.9-2.9h-32.5v-26.3h34.3
				c1.6,0,2.9-1.3,2.9-2.9v-9.1c0-1.6-1.3-2.9-2.9-2.9h-48.2c-1.6,0-2.9,1.3-2.9,2.9V214c0,1.6,1.3,2.9,2.9,2.9h49.8
				c1.6,0,2.9-1.3,2.9-2.9v-9.1C886,203.5,884.8,202.3,883.1,202.3z"/>
		</g>
		<g>
			<path class="st1" d="M488.9,117.8h-47c-1.6,0-2.9,1.3-2.9,2.9v93.5c0,1.6,1.3,2.9,2.9,2.9H453c1.6,0,2.9-1.3,2.9-2.9v-40.4h31.5
				c1.6,0,2.9-1.3,2.9-2.9v-8.8c0-1.6-1.3-2.9-2.9-2.9h-31.5v-26.5h33c1.6,0,2.9-1.3,2.9-2.9v-9.1
				C491.8,119.1,490.5,117.8,488.9,117.8z"/>
			<path class="st1" d="M530.7,159.2h-24c-1.6,0-2.9,1.3-2.9,2.9v8.8c0,1.6,1.3,2.9,2.9,2.9h24c1.6,0,2.9-1.3,2.9-2.9v-8.8
				C533.6,160.5,532.3,159.2,530.7,159.2z"/>
		</g>
	</g>
</g>
<g id="レイヤー_2_1_" class="st2">
	<g class="st3">
		<path class="st0" d="M58,190.2c-4.9,2.2-11.5,3-16.9,3c-22,0-36.5-13.5-36.5-35.6C4.6,136.5,20,122,41.1,122
			c5.3,0,11.8,0.8,16.7,2.6l-0.6,9.1c-4.2-2-9.9-2.9-14.8-2.9c-16.2,0-26,11.4-26,26.8c0,15.9,9.3,26.8,25.8,26.8
			c5.3,0,10.6-0.8,15.2-3L58,190.2z"/>
		<path class="st0" d="M81.9,165.9c0-15.7,10-26.7,25.5-26.7c16.4,0,25.5,10.6,25.5,26.7c0,15.7-9.1,27.2-25.5,27.2
			c-4.1,0-7.8-0.6-11-2C87,187.1,81.9,177.7,81.9,165.9z M107.3,185.3c10.3,0,14.3-9.8,14.3-19.4c0-9.2-3.6-18.9-14.3-18.9
			C97,147,93,156.8,93,165.9c0,4.7,1,9.5,3.2,13.3C98.7,182.8,102.1,185.3,107.3,185.3z"/>
		<path class="st0" d="M158.1,192v-39.9c0-4-0.1-7.9-0.5-11.9h9.7l0.3,8.9c3.6-6.6,9.2-9.9,16.8-9.9c12.8,0,17.4,8.1,17.4,20.1V192
			h-10.5v-30.5c0-7.2-1.5-14.2-10.2-14.2c-9.6,0-12.6,8.4-12.6,16.6V192H158.1z"/>
		<path class="st0" d="M227.4,192v-39.9c0-4-0.1-7.9-0.5-11.9h9.7l0.3,8.9c3.6-6.6,9.2-9.9,16.8-9.9c12.8,0,17.4,8.1,17.4,20.1V192
			h-10.5v-30.5c0-7.2-1.5-14.2-10.2-14.2c-9.6,0-12.6,8.4-12.6,16.6V192H227.4z"/>
		<path class="st0" d="M306.3,168.4c0,9.5,5.9,17.5,17.3,17.5c4.7,0,9.8-1,14-3.2l0.6,7.7c-4.9,2-10.3,2.8-16.1,2.8
			c-17.5,0-26.5-11.1-26.5-27.2c0-14.2,8.8-26.7,23.7-26.7c16.3,0,21.6,11.5,21.6,26.1v3.1L306.3,168.4L306.3,168.4z M331.1,162
			c0-7.9-2.3-15.6-11.6-15.6c-8.8,0-12.9,8.2-13.3,15.6H331.1z"/>
		<path class="st0" d="M405.6,191.2c-4.1,1.6-8.2,2-13,2c-17.8,0-27-11.4-27-27.2c0-16,11-26.7,27.2-26.7c4.6,0,8.5,0.2,12.9,1.8
			l-0.6,8.3c-3.2-1.6-6.8-2.3-10.9-2.3c-11.3,0-17.5,8.2-17.5,18.9c0,10.4,5.9,19.4,18.1,19.4c3.8,0,6.8-0.7,10.2-2.3L405.6,191.2z"
			/>
		<path class="st0" d="M462.3,191.4c-3.2,1.1-6.7,1.8-9.9,1.8c-11.1,0-13.1-7.7-13.1-17.7v-27.7h-9.5v-7.4h9.5v-11.2l10.5-3.4v14.6
			h11.6v7.4h-11.6v29c0,4.5,1.1,8.3,6.4,8.3c2,0,3.8-0.4,5.7-1.2L462.3,191.4z"/>
		<path class="st0" d="M486.3,205.3l6-23.9h10.8l-9.1,23.9H486.3z"/>
		<path class="st0" d="M552.1,192v-69h21.2c22.3,0,35.3,10.9,35.3,33.5c0,24-15.6,35.5-38.4,35.5H552.1z M563.4,183.6h5.7
			c17.8,0,27.7-8.8,27.7-27.1c0-15.8-8.4-25.2-24.6-25.2h-8.8L563.4,183.6L563.4,183.6z"/>
		<path class="st0" d="M643.2,168.4c0,9.5,5.9,17.5,17.3,17.5c4.7,0,9.8-1,14-3.2l0.6,7.7c-4.9,2-10.4,2.8-16.1,2.8
			c-17.5,0-26.5-11.1-26.5-27.2c0-14.2,8.8-26.7,23.7-26.7c16.3,0,21.6,11.5,21.6,26.1v3.1L643.2,168.4L643.2,168.4z M667.9,162
			c0-7.9-2.3-15.6-11.6-15.6c-8.8,0-12.9,8.2-13.3,15.6H667.9z"/>
		<path class="st0" d="M704.3,192v-74.6h10.3V192H704.3z"/>
		<path class="st0" d="M741.2,129.6v-10h10.3v10H741.2z M741.2,192v-51.8h10.3V192H741.2z"/>
		<path class="st0" d="M781.5,203.9c4.6,2.4,10,3.7,15.4,3.7c12,0,16.9-7.5,16.9-18.5V183c-3.3,5.7-9.4,9-16.1,9
			c-15.2,0-21-13.3-21-26.1c0-13.8,5.9-26.7,21.2-26.7c7.1,0,12.9,3,16.3,9.6v-8.6h9.9v48.9c0,16.9-8.4,26.4-25.7,26.4
			c-5.9,0-11.8-1-17.6-2.8L781.5,203.9z M800.9,184.1c9.9,0,13.3-10.1,13.3-18c0-8.3-3.1-18.9-13.1-18.9c-10.8,0-13,10.1-13,18.9
			c0,4,0.6,8.5,2.6,12.1C792.5,181.6,795.6,184.1,800.9,184.1z"/>
		<path class="st0" d="M850.1,192v-74.6h10.3v31.5c3.2-6.5,8.7-9.6,16-9.6c12.4,0,17.3,8.3,17.3,20.1V192h-10.5v-30.5
			c0-7.3-1.5-14.2-10.2-14.2c-9.5,0-12.6,8.5-12.6,16.5V192H850.1z"/>
		<path class="st0" d="M950.2,191.4c-3.2,1.1-6.7,1.8-9.9,1.8c-11.1,0-13.1-7.7-13.1-17.7v-27.7h-9.5v-7.4h9.5v-11.2l10.5-3.4v14.6
			h11.6v7.4h-11.6v29c0,4.5,1.1,8.3,6.4,8.3c2,0,3.8-0.4,5.7-1.2L950.2,191.4z"/>
	</g>
</g>
</svg>
