<svg xmlns="http://www.w3.org/2000/svg" viewBox="0 0 948 331.8"><defs><style>.cls-1{fill:#fff;}.cls-2{fill:#ff355e;}.cls-3{fill:#515457;}</style></defs><title>アセット 1</title><g id="レイヤー_2" data-name="レイヤー 2"><g id="レイヤー_1-2" data-name="レイヤー 1"><rect class="cls-1" width="948" height="331.8"/><path class="cls-2" d="M157.25,228l-18.81-13.48a7.39,7.39,0,0,0-8.54,0,59.1,59.1,0,1,1-.12-97,7.36,7.36,0,0,0,8.52-.06L157.13,104a7.39,7.39,0,0,0,.43-11.68,96.05,96.05,0,1,0,.13,147.39,7.39,7.39,0,0,0-.44-11.67Z"/><path class="cls-2" d="M363.13,132.21a94.42,94.42,0,0,0-87.44-60h-67a7.38,7.38,0,0,0-7.38,7.39v21.59a7.38,7.38,0,0,0,7.38,7.39h67a57.82,57.82,0,0,1,54.95,40.82,57.29,57.29,0,0,1,0,33.15,57.81,57.81,0,0,1-54.95,40.83h-67a7.38,7.38,0,0,0-7.38,7.39v21.6a7.37,7.37,0,0,0,7.38,7.38h67a94.45,94.45,0,0,0,87.45-60,93.36,93.36,0,0,0,0-67.61Z"/><rect class="cls-2" x="96.11" y="147.55" width="177.31" height="36.94" rx="7.39" ry="7.39"/><path class="cls-3" d="M639.56,204.43a3.34,3.34,0,0,0-1.63-.43,3.38,3.38,0,0,0-1.42.32c-6.08,2.91-13.79,4.39-22.91,4.39-24.66,0-39.39-15.51-39.39-41.49,0-25.21,15.53-41.49,39.55-41.49,6.39,0,15.64,1.15,22.43,4.38a3.23,3.23,0,0,0,1.42.32,3.27,3.27,0,0,0,3.28-3l1-11.52a3.29,3.29,0,0,0-2-3.32c-8.05-3.3-19.43-4.47-26.72-4.47-34.15,0-58.94,24.86-58.94,59.11,0,35.9,23.13,59.1,58.94,59.1,3.95,0,17.59-.37,27.27-5.21a3.3,3.3,0,0,0,1.81-3.24l-1-10.87A3.29,3.29,0,0,0,639.56,204.43Z"/><path class="cls-3" d="M705.68,108.11c-35.9,0-52,29.69-52,59.11,0,36.46,19.91,59.1,52,59.1,16.32,0,29.86-6.19,39.14-17.89,8.27-10.43,12.82-25.06,12.82-41.21C757.64,130.76,737.73,108.11,705.68,108.11Zm0,100.92c-15.89,0-31.92-12.93-31.92-41.81,0-20.82,9.87-41.82,31.92-41.82,15.35,0,31.75,11,31.75,41.82S721,209,705.68,209Z"/><path class="cls-3" d="M806,109.76H777.74a3.29,3.29,0,0,0-3.29,3.29V221.27a3.29,3.29,0,0,0,3.29,3.29H800c41.67,0,64.62-20.36,64.62-57.32C864.59,130.71,843.23,109.76,806,109.76Zm-6.33,97.67h-5.79V126.89h11.64c24.82,0,39,14.7,39,40.35C844.54,195,830.7,207.43,799.64,207.43Z"/><path class="cls-3" d="M942.45,207.43H901V174.1h37.59a3.29,3.29,0,0,0,3.3-3.29V160.59a3.29,3.29,0,0,0-3.3-3.29H901V126.89h39.71A3.3,3.3,0,0,0,944,123.6V113.05a3.29,3.29,0,0,0-3.29-3.29H884.85a3.29,3.29,0,0,0-3.29,3.29V221.27a3.29,3.29,0,0,0,3.29,3.29h57.6a3.29,3.29,0,0,0,3.29-3.29V210.72A3.29,3.29,0,0,0,942.45,207.43Z"/><path class="cls-3" d="M486.21,109.76H431.86a3.29,3.29,0,0,0-3.29,3.29V221.27a3.29,3.29,0,0,0,3.29,3.29h12.82a3.29,3.29,0,0,0,3.29-3.29V174.42h36.46a3.29,3.29,0,0,0,3.29-3.29V160.91a3.29,3.29,0,0,0-3.29-3.29H448V126.89h38.24a3.29,3.29,0,0,0,3.29-3.3V113.05A3.29,3.29,0,0,0,486.21,109.76Z"/><path class="cls-3" d="M534.62,157.62H506.79a3.29,3.29,0,0,0-3.29,3.29v10.22a3.29,3.29,0,0,0,3.29,3.29h27.83a3.29,3.29,0,0,0,3.3-3.29V160.91A3.3,3.3,0,0,0,534.62,157.62Z"/></g></g></svg>