<svg id="レイヤー_1" data-name="レイヤー 1" xmlns="http://www.w3.org/2000/svg" xmlns:xlink="http://www.w3.org/1999/xlink" viewBox="0 0 1300 455"><defs><style>.cls-1{fill:#fff;}.cls-2{fill:#767677;}.cls-3{fill:#189ac5;}.cls-4{mask:url(#mask);}.cls-5{mask:url(#mask-2-2);}</style><mask id="mask" x="86.58" y="98.46" width="255.34" height="255.53" maskUnits="userSpaceOnUse"><g id="mask-2"><polygon id="path-1" class="cls-1" points="86.58 353.99 341.92 353.99 341.92 98.46 86.58 98.46 86.58 353.99"/></g></mask><mask id="mask-2-2" x="86.58" y="139.39" width="114.13" height="173.68" maskUnits="userSpaceOnUse"><g id="mask-4"><polygon id="path-3" class="cls-1" points="86.58 139.39 86.58 313.07 200.72 313.07 200.72 139.39 86.58 139.39"/></g></mask></defs><title>アートボード 1</title><rect id="bg" class="cls-1" width="1300" height="455"/><path id="o" class="cls-2" d="M1102.72,140.81c-53.85,0-89.09,35.24-89.09,89.09S1048.87,319,1102.72,319s89.08-35.24,89.08-89.08S1156.56,140.81,1102.72,140.81Zm0,140.69a51.61,51.61,0,1,1,51.6-51.6A51.61,51.61,0,0,1,1102.72,281.5Z"/><polygon id="i" class="cls-2" points="973.98 316.65 935.21 316.65 935.21 211.52 973.98 172.77 973.98 316.65"/><polyline id="i-2" data-name="i" class="cls-3" points="973.98 157.95 935.21 196.7 935.21 143.14 973.98 143.14"/><polygon id="L" class="cls-2" points="895.61 316.65 788.72 316.65 788.72 143.13 827.5 143.13 827.5 280.44 895.61 280.44 895.61 316.65"/><path id="o-2" data-name="o" class="cls-2" d="M659.18,140.81c-53.85,0-89.09,35.24-89.09,89.09S605.33,319,659.18,319s89.09-35.24,89.09-89.08S713,140.81,659.18,140.81Zm0,140.69a51.61,51.61,0,1,1,51.61-51.6A51.61,51.61,0,0,1,659.18,281.5Z"/><polygon id="F" class="cls-2" points="557.05 174 481.85 174 481.85 205.37 531 205.37 531 236.23 481.85 236.23 481.85 316.65 443.08 316.65 443.08 143.14 557.05 143.14 557.05 174"/><g id="logo"><g class="cls-4"><path id="Fill-8" class="cls-2" d="M214.16,98.46a127.77,127.77,0,1,1-86.22,222l42.6-42.61a67.62,67.62,0,1,0,0-103.33L127.94,132a127.27,127.27,0,0,1,86.22-33.5"/></g><g class="cls-5"><path id="Fill-5" class="cls-3" d="M120.45,313.07c-45.16-48.71-45.16-125,0-173.68L196.09,215a15.87,15.87,0,0,1,0,22.4Z"/></g></g></svg>