<?xml version="1.0" encoding="utf-8"?>
<!-- Generator: Adobe Illustrator 21.1.0, SVG Export Plug-In . SVG Version: 6.00 Build 0)  -->
<svg version="1.1" id="レイヤー_1" xmlns="http://www.w3.org/2000/svg" xmlns:xlink="http://www.w3.org/1999/xlink" x="0px"
	 y="0px" viewBox="0 0 400 140" style="enable-background:new 0 0 400 140;" xml:space="preserve">
<style type="text/css">
	.st0{fill:#FFFFFF;}
	.st1{fill:#231815;}
	.st2{fill:#3FB8AB;}
</style>
<rect x="-12.6" y="-8" class="st0" width="427.6" height="157"/>
<g>
	<path class="st1" d="M302.5,53.9c-1.7,0-3.1,1.4-3.1,3.1v28c0,4,6.1,4,6.1,0V57C305.6,55.3,304.2,53.9,302.5,53.9z"/>
	<path class="st1" d="M376.5,69.7l11.6-10.4c2.9-2.6-1.2-7.2-4.1-4.6l-16.1,14.5V57c0-4-6.1-4-6.1,0v28c0,4,6.1,4,6.1,0v-7.5
		l4.1-3.7L383.8,87c2.6,2.9,7.2-1.2,4.6-4.1L376.5,69.7z"/>
	<path class="st1" d="M117.9,54.7l-12.3,10.7L93.4,54.7c-1.9-1.7-5.1-0.3-5.1,2.3v28c0,4,6.1,4,6.1,0V63.7l9.1,8
		c0.6,0.5,1.3,0.8,2,0.8c0,0,0.2,0,0.3,0c0.7,0,1.4-0.3,2-0.8l9.1-8V85c0,4,6.1,4,6.1,0V57C123,54.2,119.8,53.1,117.9,54.7z"/>
	<path class="st1" d="M164.2,83.7l-12.1-28c-1.1-2.4-4.5-2.4-5.6,0l-12.1,27.9c-1.6,3.6,4,6,5.6,2.4l9.3-21.5l9.3,21.5
		C160.2,89.8,165.8,87.3,164.2,83.7z"/>
	<path class="st1" d="M172.3,58.2l12.1,28c1.1,2.4,4.5,2.4,5.6,0l12.1-27.9c1.6-3.6-4-6-5.6-2.4l-9.3,21.5l-9.3-21.5
		C176.3,52.2,170.7,54.6,172.3,58.2z"/>
	<path class="st1" d="M238.9,81.9h-18.2v-7.6h14.2c4,0,4-6.1,0-6.1h-14.2v-8.1h18.2c4,0,4-6.1,0-6.1h-21.3c-1.7,0-3.1,1.4-3.1,3.1
		v28c0,1.7,1.4,3.1,3.1,3.1h21.3C242.9,88,242.9,81.9,238.9,81.9z"/>
	<path class="st1" d="M284.9,83.1l-7.2-9.5c4.8-1.5,7.8-6.5,6.9-11.4c-0.9-4.7-5.1-8.3-9.9-8.3l0,0h-15c-1.7,0-3.1,1.4-3.1,3.1v28
		c0,4,6.1,4,6.1,0V60.1h10.8c2.8,0,6.1,1.5,5.7,4.8c-0.4,3.1-4.2,3.7-6.7,3.7c-2.5-0.1-4.1,2.9-2.6,4.9L280,86.8
		C282.4,90,287.3,86.3,284.9,83.1z"/>
	<path class="st1" d="M342.7,78.7c-3.3,3.3-8.5,4.1-12.6,2c-4.9-2.4-7.2-8.4-5.4-13.5c2-5.5,8.2-8.5,13.7-6.6
		c1.3,0.4,2.4,1.1,3.5,1.9c1,0.8,1.7,1.7,3.1,1.6c2.5-0.1,3.8-3.1,2.2-5c-2.8-3.5-7.9-5.2-12.3-5.2c-4.5,0-8.9,1.8-12.1,5
		c-6.8,6.8-6.5,18.1,0.5,24.6c4.7,4.4,11.7,5.7,17.7,3.3c1.4-0.6,2.8-1.3,4-2.2c1.1-0.8,2.5-1.9,2.7-3.4
		C348.3,78.5,344.8,76.7,342.7,78.7C342.7,78.7,343.9,77.5,342.7,78.7z"/>
</g>
<g>
	<path class="st2" d="M75.3,67.9c-0.8-3.3-2.4-6.3-4.7-8.8c-1.6,4.1-6.1,15.7-7.4,18.7c-1.6,3.6-3.9,6.9-6.6,9.6
		c0.9,0.2,1.9,0.4,2.9,0.4c5,0,9.2-3,11-7.3C71,79.3,74.3,70.5,75.3,67.9z"/>
	<path class="st2" d="M43,55.9c-2-1.5-4.5-2.4-7.1-2.4c-4.6,0-8.8,2.5-10.6,6.4l-6.9,17l0,0c0,0,0,0,0,0c-1.7,4-4.1,7.6-7.2,10.6
		c1,0.3,2,0.4,3.1,0.4c4.9,0,9-2.9,10.9-7l6.7-17.1C33.8,59.5,38,56.3,43,55.9z"/>
	<path class="st2" d="M65.8,55.9c-2-1.5-4.6-2.4-7.3-2.4c-4.7,0-9,2.3-10.9,6.4l-7,17l0,0c0,0,0,0,0,0c-1.7,4-4.2,7.6-7.4,10.6
		c1,0.3,2.1,0.4,3.2,0.4c5,0,9.2-2.9,11.2-7l6.9-17.1C56.4,59.5,60.7,56.3,65.8,55.9z"/>
</g>
</svg>
