
<svg width="400px" height="140px" viewBox="0 0 400 140" version="1.1" xmlns="http://www.w3.org/2000/svg" xmlns:xlink="http://www.w3.org/1999/xlink">
    <!-- Generator: Sketch 47.1 (45422) - http://www.bohemiancoding.com/sketch -->
    <desc>Created with Sketch.</desc>
    <defs></defs>
    <g id="Page-1" stroke="none" stroke-width="1" fill="none" fill-rule="evenodd">
        <g id="paidy" transform="translate(-1.000000, 0.000000)">
            <rect id="Rectangle" fill="#FFFFFF" x="1" y="0" width="400" height="140"></rect>
            <g id="Paidy_Logo" stroke-width="1" transform="translate(100.000000, 17.000000)">
                <path d="M128.258046,56.8047337 C125.552028,56.8047337 123.423293,57.891559 121.871843,60.101437 C120.320393,62.166405 119.526627,65.1008332 119.526627,68.8322666 C119.526627,72.9984301 120.284312,76.1864509 121.871843,78.3601014 C123.423293,80.533752 125.660268,81.6568047 128.582768,81.6568047 C131.397027,81.6568047 133.561842,80.5699795 135.113292,78.3601014 C136.556502,76.1864509 137.278107,72.9984301 137.278107,68.8322666 C137.278107,65.1008332 136.484341,62.1301775 134.932891,59.9202995 C133.2732,57.8553315 131.072305,56.8047337 128.258046,56.8047337 Z" id="Shape" fill="#E5258C" fill-rule="nonzero"></path>
                <path d="M10.6017145,99.9844286 C10.6017145,103.726773 8.36597879,105.325444 5.30085725,105.325444 L0,105.325444 L0,66.3033326 C0,59.0003118 5.01237522,47.3372785 20.2298022,47.3372785 C22.8261404,47.3372785 39.0532544,47.3009451 39.0532544,68.7740063 C39.0532544,89.4113984 27.2615516,90.7194022 22.3934174,90.7194022 C15.8665115,90.7194022 11.8277631,86.6500572 10.5656542,84.4337176 L10.5656542,99.9844286 L10.6017145,99.9844286 Z M28.3072989,69.2826744 C28.3072989,65.2133295 27.5500336,62.0523205 25.9633825,59.8723142 C24.4127916,57.692308 22.1770558,56.6023049 19.2922356,56.6023049 C16.4795358,56.6023049 14.3159206,57.692308 12.7653297,59.8723142 C11.3229196,61.8706533 10.6017145,64.9953288 10.6017145,69.2826744 C10.6017145,73.243019 11.3589798,76.2223608 12.945631,78.1843664 C14.4962219,80.4007061 16.7319576,81.4543758 19.6528381,81.4543758 C22.3573571,81.4543758 24.4849121,80.3643726 26.035503,78.1843664 C27.5500336,76.0043602 28.3072989,73.0250184 28.3072989,69.2826744 L28.3072989,69.2826744 Z" id="Shape" fill="#0D47A1" fill-rule="nonzero"></path>
                <path d="M157.784339,14.766849 L156.635496,14.2458412 L155.486652,13.7248335 L142.367605,7.88210338 C141.218762,7.3610956 139.9958,7.10059172 138.809897,7.10059172 C135.845141,7.10059172 133.028622,8.58918537 131.360947,11.1942243 L132.028017,12.7572476 L136.438092,23.1774031 L154.819582,23.1774031 L158.933182,23.1774031 L158.933182,27.3082505 L158.933182,36.6863905 L162.898544,27.7548286 L163.417376,26.6011685 L163.936208,25.4475085 L166.863905,18.8232667 L157.784339,14.766849 Z" id="Shape" fill="#8BC34A" fill-rule="nonzero"></path>
                <path d="M100.923283,23.6316568 L120.958665,23.6316568 L123.192958,23.6316568 L125.427251,23.6316568 L129.309793,23.6316568 L131.360947,23.6316568 L128.467354,16.7159763 L127.698171,14.8668639 L127.405149,14.1272189 L126.892361,12.943787 L126.306317,11.5384615 L126.08655,11.0207101 L121.434825,0 L106.417446,6.43491124 L104.512803,7.24852071 L102.60816,8.06213018 L80.9611568,17.3816568 C73.6356059,20.5251479 70.2292248,29.1050296 73.3425839,36.464497 L79.4227911,50.887574 L79.4227911,45.2292899 C79.4594189,33.3579882 89.0925182,23.6316568 100.923283,23.6316568" id="Shape" fill="#2196F3" fill-rule="nonzero"></path>
                <path d="M69.7980845,88.7046872 C62.038675,92.5085869 42.6035503,93.7155935 42.6035503,77.7684756 C42.6035503,73.3427846 43.9577869,70.2704041 46.483255,68.2953024 C53.9498566,62.5163009 67.7118282,64.4182507 67.7118282,59.773104 C67.7118282,58.2003378 66.7602025,56.0057803 60.7576405,56.0057803 C55.889709,56.0057803 54.8282804,57.8345782 54.2792655,59.0050089 L43.7015799,59.0050089 C44.1041908,55.7497486 46.9224669,47.3372781 60.2818276,47.3372781 C76.6424693,47.3372781 78.1065089,55.383989 78.1065089,59.1513127 L78.1065089,73.4890885 C78.1065089,83.584053 73.0189715,87.131921 69.7980845,88.7046872 L69.7980845,88.7046872 Z M67.8582322,69.0999734 C59.5864088,72.8672972 52.851827,71.7334425 52.851827,77.4758679 C52.851827,79.0486342 53.4740438,82.5233502 58.3785762,82.5233502 C61.3432563,82.5233502 67.8582322,82.0112868 67.8582322,73.0867529 L67.8582322,69.0999734 Z" id="Shape" fill="#0D47A1" fill-rule="nonzero"></path>
                <path d="M101.270512,27.2189349 C91.7575165,27.2189349 84.0236686,34.9487631 84.0236686,44.4568146 L84.0236686,97.0414201 L136.59931,97.0414201 C146.112306,97.0414201 153.846154,89.311592 153.846154,79.8035405 L153.846154,27.2552252 L101.270512,27.2189349 Z M101.052657,88.9486892 L90.0872958,88.9486892 L90.0872958,52.622126 C90.0872958,51.1705151 90.631933,49.9003555 91.648589,48.8842279 C92.7015542,47.83181 93.9360651,47.3237461 95.4247401,47.3237461 L101.052657,47.3237461 L101.052657,88.9486892 L101.052657,88.9486892 Z M101.052657,43.6947188 L90.0872958,43.6947188 L90.0872958,40.4285943 C90.0872958,38.9769834 90.631933,37.7068238 91.648589,36.6544059 C92.7015542,35.601988 93.9360651,35.0939241 95.4247401,35.0939241 L101.052657,35.0939241 L101.052657,43.6947188 L101.052657,43.6947188 Z M147.564672,70.7672625 C147.564672,78.1704782 145.422432,83.1785358 141.137953,85.7914355 C136.853474,88.3680449 132.205904,89.710785 127.195242,89.710785 C124.472056,89.710785 121.821488,89.2753017 119.20723,88.3680449 C116.592971,87.4970783 114.487041,86.0454674 112.925748,84.0857927 C109.912089,80.2027335 108.387105,74.9406439 108.387105,68.2632336 C108.387105,61.6946942 109.912089,56.4326047 112.925748,52.4406746 C116.048334,48.3761641 120.078649,46.3439088 124.980384,46.3439088 C127.594642,46.3439088 129.882118,46.8519726 131.879121,47.9043905 C133.985052,49.1745501 135.618963,50.7713221 136.889783,52.7672871 L136.889783,34.9124728 L142.227228,34.9124728 C143.679593,34.9124728 144.950413,35.4568269 146.003379,36.5455351 C147.056344,37.6342433 147.564672,38.8681125 147.564672,40.2471429 L147.564672,70.7672625 Z" id="Shape" fill="#E5258C" fill-rule="nonzero"></path>
                <path d="M165.692169,103.677831 L165.692169,95.0742801 L168.656597,95.0742801 C170.753388,95.0742801 172.380208,94.5660534 173.57321,93.5859021 C174.766211,92.6057507 174.98312,91.008467 174.260089,88.8303528 L159.763314,47.3372781 L171.765632,47.3372781 L180.188945,76.7781211 L187.527712,51.0763741 C188.142288,48.5715428 189.80526,47.3372781 192.516627,47.3372781 L200,47.3372781 L184.093314,94.7838649 C182.828009,98.2325456 181.23734,100.664773 179.429762,102.153151 C175.344636,105.420322 166.017534,103.677831 165.692169,103.677831" id="Shape" fill="#0D47A1" fill-rule="nonzero"></path>
            </g>
        </g>
    </g>
</svg>